<?xml version="1.0" encoding="utf-8" standalone="no"?>
<!DOCTYPE svg PUBLIC "-//W3C//DTD SVG 1.1//EN"
  "http://www.w3.org/Graphics/SVG/1.1/DTD/svg11.dtd">
<svg xmlns:xlink="http://www.w3.org/1999/xlink" width="568.8pt" height="568.8pt" viewBox="0 0 568.8 568.8" xmlns="http://www.w3.org/2000/svg" version="1.1">
 <metadata>
  <rdf:RDF xmlns:dc="http://purl.org/dc/elements/1.1/" xmlns:cc="http://creativecommons.org/ns#" xmlns:rdf="http://www.w3.org/1999/02/22-rdf-syntax-ns#">
   <cc:Work>
    <dc:type rdf:resource="http://purl.org/dc/dcmitype/StillImage"/>
    <dc:date>2025-09-17T15:55:34.533988</dc:date>
    <dc:format>image/svg+xml</dc:format>
    <dc:creator>
     <cc:Agent>
      <dc:title>Matplotlib v3.10.6, https://matplotlib.org/</dc:title>
     </cc:Agent>
    </dc:creator>
   </cc:Work>
  </rdf:RDF>
 </metadata>
 <defs>
  <style type="text/css">*{stroke-linejoin: round; stroke-linecap: butt}</style>
 </defs>
 <g id="figure_1">
  <g id="patch_1">
   <path d="M 0 568.8 
L 568.8 568.8 
L 568.8 0 
L 0 0 
L 0 568.8 
z
" style="fill: none"/>
  </g>
  <g id="axes_1">
   <g id="patch_2">
    <path d="M 284.4 533.88 
C 350.562869 533.88 414.024786 507.593213 460.809 460.809 
C 507.593213 414.024786 533.88 350.562869 533.88 284.4 
C 533.88 218.237131 507.593213 154.775214 460.809 107.991 
C 414.024786 61.206787 350.562869 34.92 284.4 34.92 
C 218.237131 34.92 154.775214 61.206787 107.991 107.991 
C 61.206787 154.775214 34.92 218.237131 34.92 284.4 
C 34.92 350.562869 61.206787 414.024786 107.991 460.809 
C 154.775214 507.593213 218.237131 533.88 284.4 533.88 
z
" clip-path="url(#pdf34adeb3f)" style="fill: #1b365d; stroke: #1b365d; stroke-linejoin: miter"/>
   </g>
   <g id="patch_3">
    <path d="M 284.4 533.88 
C 350.562869 533.88 414.024786 507.593213 460.809 460.809 
C 507.593213 414.024786 533.88 350.562869 533.88 284.4 
C 533.88 218.237131 507.593213 154.775214 460.809 107.991 
C 414.024786 61.206787 350.562869 34.92 284.4 34.92 
C 218.237131 34.92 154.775214 61.206787 107.991 107.991 
C 61.206787 154.775214 34.92 218.237131 34.92 284.4 
C 34.92 350.562869 61.206787 414.024786 107.991 460.809 
C 154.775214 507.593213 218.237131 533.88 284.4 533.88 
L 284.4 533.88 
z
" clip-path="url(#pdf34adeb3f)" style="fill: none; stroke: #f4a261; stroke-width: 8; stroke-linejoin: miter"/>
   </g>
   <g id="patch_4">
    <path d="M 284.4 395.28 
C 310.130005 395.28 334.809639 389.438492 353.0035 379.042 
C 371.197361 368.645508 381.42 354.54286 381.42 339.84 
C 381.42 325.13714 371.197361 311.034492 353.0035 300.638 
C 334.809639 290.241508 310.130005 284.4 284.4 284.4 
C 258.669995 284.4 233.990361 290.241508 215.7965 300.638 
C 197.602639 311.034492 187.38 325.13714 187.38 339.84 
C 187.38 354.54286 197.602639 368.645508 215.7965 379.042 
C 233.990361 389.438492 258.669995 395.28 284.4 395.28 
z
" clip-path="url(#pdf34adeb3f)" style="fill: #6c757d; stroke: #6c757d; stroke-linejoin: miter"/>
   </g>
   <g id="patch_5">
    <path d="M 367.56 339.84 
C 382.26286 339.84 396.365508 333.998492 406.762 323.602 
C 417.158492 313.205508 423 299.10286 423 284.4 
C 423 269.69714 417.158492 255.594492 406.762 245.198 
C 396.365508 234.801508 382.26286 228.96 367.56 228.96 
C 352.85714 228.96 338.754492 234.801508 328.358 245.198 
C 317.961508 255.594492 312.12 269.69714 312.12 284.4 
C 312.12 299.10286 317.961508 313.205508 328.358 323.602 
C 338.754492 333.998492 352.85714 339.84 367.56 339.84 
z
" clip-path="url(#pdf34adeb3f)" style="fill: #6c757d; stroke: #6c757d; stroke-linejoin: miter"/>
   </g>
   <g id="patch_6">
    <path d="M 350.928 228.96 
L 367.56 184.608 
L 384.192 228.96 
z
" clip-path="url(#pdf34adeb3f)" style="fill: #6c757d; stroke: #6c757d; stroke-linejoin: miter"/>
   </g>
   <g id="patch_7">
    <path d="M 339.84 240.048 
L 395.28 240.048 
L 395.28 217.872 
L 339.84 217.872 
z
" clip-path="url(#pdf34adeb3f)" style="stroke: #000000; stroke-linejoin: miter"/>
   </g>
   <g id="line2d_1">
    <path d="M 284.4 90.36 
L 380.424897 34.92 
" clip-path="url(#pdf34adeb3f)" style="fill: none; stroke: #f4a261; stroke-width: 3; stroke-linecap: round"/>
   </g>
   <g id="line2d_2">
    <path d="M 334.621248 96.971753 
L 441.723103 68.273897 
" clip-path="url(#pdf34adeb3f)" style="fill: none; stroke: #f4a261; stroke-width: 3; stroke-linecap: round"/>
   </g>
   <g id="line2d_3">
    <path d="M 381.42 116.356431 
L 492.3 116.356431 
" clip-path="url(#pdf34adeb3f)" style="fill: none; stroke: #f4a261; stroke-width: 3; stroke-linecap: round"/>
   </g>
   <g id="line2d_4">
    <path d="M 421.607 147.193 
L 528.708855 175.890856 
" clip-path="url(#pdf34adeb3f)" style="fill: none; stroke: #f4a261; stroke-width: 3; stroke-linecap: round"/>
   </g>
   <g id="line2d_5">
    <path d="M 452.443569 187.38 
L 548.468466 242.82 
" clip-path="url(#pdf34adeb3f)" style="fill: none; stroke: #f4a261; stroke-width: 3; stroke-linecap: round"/>
   </g>
   <g id="line2d_6">
    <path d="M 471.828247 234.178752 
L 550.232247 312.582752 
" clip-path="url(#pdf34adeb3f)" style="fill: none; stroke: #f4a261; stroke-width: 3; stroke-linecap: round"/>
   </g>
   <g id="line2d_7">
    <path d="M 478.44 284.4 
L 533.88 380.424897 
" clip-path="url(#pdf34adeb3f)" style="fill: none; stroke: #f4a261; stroke-width: 3; stroke-linecap: round"/>
   </g>
   <g id="line2d_8">
    <path d="M 284.4 90.36 
L 188.375103 34.92 
" clip-path="url(#pdf34adeb3f)" style="fill: none; stroke: #f4a261; stroke-width: 3; stroke-linecap: round"/>
   </g>
   <g id="line2d_9">
    <path d="M 234.178752 96.971753 
L 127.076897 68.273897 
" clip-path="url(#pdf34adeb3f)" style="fill: none; stroke: #f4a261; stroke-width: 3; stroke-linecap: round"/>
   </g>
   <g id="line2d_10">
    <path d="M 187.38 116.356431 
L 76.5 116.356431 
" clip-path="url(#pdf34adeb3f)" style="fill: none; stroke: #f4a261; stroke-width: 3; stroke-linecap: round"/>
   </g>
   <g id="line2d_11">
    <path d="M 147.193 147.193 
L 40.091145 175.890856 
" clip-path="url(#pdf34adeb3f)" style="fill: none; stroke: #f4a261; stroke-width: 3; stroke-linecap: round"/>
   </g>
   <g id="line2d_12">
    <path d="M 116.356431 187.38 
L 20.331534 242.82 
" clip-path="url(#pdf34adeb3f)" style="fill: none; stroke: #f4a261; stroke-width: 3; stroke-linecap: round"/>
   </g>
   <g id="line2d_13">
    <path d="M 96.971753 234.178752 
L 18.567753 312.582752 
" clip-path="url(#pdf34adeb3f)" style="fill: none; stroke: #f4a261; stroke-width: 3; stroke-linecap: round"/>
   </g>
   <g id="line2d_14">
    <path d="M 90.36 284.4 
L 34.92 380.424897 
" clip-path="url(#pdf34adeb3f)" style="fill: none; stroke: #f4a261; stroke-width: 3; stroke-linecap: round"/>
   </g>
   <g id="line2d_15">
    <path d="M 367.56 240.048 
L 395.28 267.768 
" clip-path="url(#pdf34adeb3f)" style="fill: none; stroke: #f4a261; stroke-width: 2; stroke-linecap: square"/>
   </g>
   <g id="text_1">
    <path d="M 204.325781 132.20625 
L 209.964844 132.20625 
L 209.964844 140.189063 
L 218.092969 132.20625 
L 224.641406 132.20625 
L 214.108594 142.565625 
L 225.724219 154.078125 
L 218.664844 154.078125 
L 209.964844 145.4625 
L 209.964844 154.078125 
L 204.325781 154.078125 
L 204.325781 132.20625 
z
M 227.821289 153.595313 
L 227.821289 149.55 
Q 229.166602 150.182813 230.394727 150.496875 
Q 231.627539 150.810938 232.827539 150.810938 
Q 235.349414 150.810938 236.755664 149.414063 
Q 238.161914 148.0125 238.410352 145.260938 
Q 237.416602 145.992188 236.286914 146.357813 
Q 235.157227 146.723438 233.840039 146.723438 
Q 230.483789 146.723438 228.425977 144.76875 
Q 226.368164 142.814063 226.368164 139.621875 
Q 226.368164 136.0875 228.660352 133.964063 
Q 230.952539 131.840625 234.805664 131.840625 
Q 239.085352 131.840625 241.429102 134.728125 
Q 243.772852 137.610938 243.772852 142.884375 
Q 243.772852 148.307813 241.030664 151.40625 
Q 238.293164 154.504688 233.516602 154.504688 
Q 231.979102 154.504688 230.572852 154.275 
Q 229.166602 154.05 227.821289 153.595313 
z
M 234.777539 143.0625 
Q 236.258789 143.0625 237.004102 142.10625 
Q 237.749414 141.145313 237.749414 139.223438 
Q 237.749414 137.320313 237.004102 136.354688 
Q 236.258789 135.384375 234.777539 135.384375 
Q 233.296289 135.384375 232.550977 136.354688 
Q 231.805664 137.320313 231.805664 139.223438 
Q 231.805664 141.145313 232.550977 142.10625 
Q 233.296289 143.0625 234.777539 143.0625 
z
M 276.234961 152.878125 
Q 274.678711 153.684375 272.995898 154.092188 
Q 271.313086 154.504688 269.480273 154.504688 
Q 264.014648 154.504688 260.822461 151.448438 
Q 257.630273 148.392188 257.630273 143.165625 
Q 257.630273 137.920313 260.822461 134.86875 
Q 264.014648 131.8125 269.480273 131.8125 
Q 271.313086 131.8125 272.995898 132.225 
Q 274.678711 132.632813 276.234961 133.439063 
L 276.234961 137.9625 
Q 274.664648 136.89375 273.141211 136.396875 
Q 271.617773 135.9 269.934961 135.9 
Q 266.916211 135.9 265.186523 137.835938 
Q 263.461523 139.767188 263.461523 143.165625 
Q 263.461523 146.55 265.186523 148.485938 
Q 266.916211 150.417188 269.934961 150.417188 
Q 271.617773 150.417188 273.141211 149.920313 
Q 274.664648 149.41875 276.234961 148.35 
L 276.234961 152.878125 
z
M 294.178125 150.09375 
L 285.360937 150.09375 
L 283.96875 154.078125 
L 278.296875 154.078125 
L 286.396875 132.20625 
L 293.123437 132.20625 
L 301.223437 154.078125 
L 295.55625 154.078125 
L 294.178125 150.09375 
z
M 286.767187 146.034375 
L 292.757812 146.034375 
L 289.767187 137.334375 
L 286.767187 146.034375 
z
M 309.764648 136.471875 
L 309.764648 149.817188 
L 311.784961 149.817188 
Q 315.239648 149.817188 317.063086 148.101563 
Q 318.891211 146.385938 318.891211 143.11875 
Q 318.891211 139.870313 317.072461 138.173438 
Q 315.258398 136.471875 311.784961 136.471875 
L 309.764648 136.471875 
z
M 304.125586 132.20625 
L 310.069336 132.20625 
Q 315.052148 132.20625 317.489648 132.91875 
Q 319.927148 133.626563 321.670898 135.328125 
Q 323.208398 136.809375 323.953711 138.745313 
Q 324.703711 140.676563 324.703711 143.11875 
Q 324.703711 145.598438 323.953711 147.539063 
Q 323.208398 149.479688 321.670898 150.95625 
Q 319.913086 152.657813 317.452148 153.370313 
Q 314.991211 154.078125 310.069336 154.078125 
L 304.125586 154.078125 
L 304.125586 132.20625 
z
M 329.02793 132.20625 
L 344.243555 132.20625 
L 344.243555 136.471875 
L 334.666992 136.471875 
L 334.666992 140.540625 
L 343.676367 140.540625 
L 343.676367 144.80625 
L 334.666992 144.80625 
L 334.666992 149.817188 
L 344.566992 149.817188 
L 344.566992 154.078125 
L 329.02793 154.078125 
L 329.02793 132.20625 
z
M 346.910156 132.20625 
L 367.066406 132.20625 
L 367.066406 136.471875 
L 359.814844 136.471875 
L 359.814844 154.078125 
L 354.175781 154.078125 
L 354.175781 136.471875 
L 346.910156 136.471875 
L 346.910156 132.20625 
z
" style="fill: #ffffff; stroke: #f4a261; stroke-width: 2"/>
    <path d="M 204.325781 132.20625 
L 209.964844 132.20625 
L 209.964844 140.189063 
L 218.092969 132.20625 
L 224.641406 132.20625 
L 214.108594 142.565625 
L 225.724219 154.078125 
L 218.664844 154.078125 
L 209.964844 145.4625 
L 209.964844 154.078125 
L 204.325781 154.078125 
L 204.325781 132.20625 
z
M 227.821289 153.595313 
L 227.821289 149.55 
Q 229.166602 150.182813 230.394727 150.496875 
Q 231.627539 150.810938 232.827539 150.810938 
Q 235.349414 150.810938 236.755664 149.414063 
Q 238.161914 148.0125 238.410352 145.260938 
Q 237.416602 145.992188 236.286914 146.357813 
Q 235.157227 146.723438 233.840039 146.723438 
Q 230.483789 146.723438 228.425977 144.76875 
Q 226.368164 142.814063 226.368164 139.621875 
Q 226.368164 136.0875 228.660352 133.964063 
Q 230.952539 131.840625 234.805664 131.840625 
Q 239.085352 131.840625 241.429102 134.728125 
Q 243.772852 137.610938 243.772852 142.884375 
Q 243.772852 148.307813 241.030664 151.40625 
Q 238.293164 154.504688 233.516602 154.504688 
Q 231.979102 154.504688 230.572852 154.275 
Q 229.166602 154.05 227.821289 153.595313 
z
M 234.777539 143.0625 
Q 236.258789 143.0625 237.004102 142.10625 
Q 237.749414 141.145313 237.749414 139.223438 
Q 237.749414 137.320313 237.004102 136.354688 
Q 236.258789 135.384375 234.777539 135.384375 
Q 233.296289 135.384375 232.550977 136.354688 
Q 231.805664 137.320313 231.805664 139.223438 
Q 231.805664 141.145313 232.550977 142.10625 
Q 233.296289 143.0625 234.777539 143.0625 
z
M 276.234961 152.878125 
Q 274.678711 153.684375 272.995898 154.092188 
Q 271.313086 154.504688 269.480273 154.504688 
Q 264.014648 154.504688 260.822461 151.448438 
Q 257.630273 148.392188 257.630273 143.165625 
Q 257.630273 137.920313 260.822461 134.86875 
Q 264.014648 131.8125 269.480273 131.8125 
Q 271.313086 131.8125 272.995898 132.225 
Q 274.678711 132.632813 276.234961 133.439063 
L 276.234961 137.9625 
Q 274.664648 136.89375 273.141211 136.396875 
Q 271.617773 135.9 269.934961 135.9 
Q 266.916211 135.9 265.186523 137.835938 
Q 263.461523 139.767188 263.461523 143.165625 
Q 263.461523 146.55 265.186523 148.485938 
Q 266.916211 150.417188 269.934961 150.417188 
Q 271.617773 150.417188 273.141211 149.920313 
Q 274.664648 149.41875 276.234961 148.35 
L 276.234961 152.878125 
z
M 294.178125 150.09375 
L 285.360937 150.09375 
L 283.96875 154.078125 
L 278.296875 154.078125 
L 286.396875 132.20625 
L 293.123437 132.20625 
L 301.223437 154.078125 
L 295.55625 154.078125 
L 294.178125 150.09375 
z
M 286.767187 146.034375 
L 292.757812 146.034375 
L 289.767187 137.334375 
L 286.767187 146.034375 
z
M 309.764648 136.471875 
L 309.764648 149.817188 
L 311.784961 149.817188 
Q 315.239648 149.817188 317.063086 148.101563 
Q 318.891211 146.385938 318.891211 143.11875 
Q 318.891211 139.870313 317.072461 138.173438 
Q 315.258398 136.471875 311.784961 136.471875 
L 309.764648 136.471875 
z
M 304.125586 132.20625 
L 310.069336 132.20625 
Q 315.052148 132.20625 317.489648 132.91875 
Q 319.927148 133.626563 321.670898 135.328125 
Q 323.208398 136.809375 323.953711 138.745313 
Q 324.703711 140.676563 324.703711 143.11875 
Q 324.703711 145.598438 323.953711 147.539063 
Q 323.208398 149.479688 321.670898 150.95625 
Q 319.913086 152.657813 317.452148 153.370313 
Q 314.991211 154.078125 310.069336 154.078125 
L 304.125586 154.078125 
L 304.125586 132.20625 
z
M 329.02793 132.20625 
L 344.243555 132.20625 
L 344.243555 136.471875 
L 334.666992 136.471875 
L 334.666992 140.540625 
L 343.676367 140.540625 
L 343.676367 144.80625 
L 334.666992 144.80625 
L 334.666992 149.817188 
L 344.566992 149.817188 
L 344.566992 154.078125 
L 329.02793 154.078125 
L 329.02793 132.20625 
z
M 346.910156 132.20625 
L 367.066406 132.20625 
L 367.066406 136.471875 
L 359.814844 136.471875 
L 359.814844 154.078125 
L 354.175781 154.078125 
L 354.175781 136.471875 
L 346.910156 136.471875 
L 346.910156 132.20625 
z
" style="fill: #ffffff"/>
   </g>
   <g id="text_2">
    <path d="M 178.598437 417.5625 
L 184.684687 417.5625 
L 184.684687 419.26875 
L 180.854062 419.26875 
L 180.854062 420.89625 
L 184.457812 420.89625 
L 184.457812 422.6025 
L 180.854062 422.6025 
L 180.854062 424.606875 
L 184.814062 424.606875 
L 184.814062 426.31125 
L 178.598437 426.31125 
L 178.598437 417.5625 
z
M 186.795703 417.5625 
L 189.051328 417.5625 
L 189.051328 422.806875 
Q 189.051328 423.890625 189.405703 424.3575 
Q 189.760078 424.8225 190.562578 424.8225 
Q 191.370703 424.8225 191.725078 424.3575 
Q 192.079453 423.890625 192.079453 422.806875 
L 192.079453 417.5625 
L 194.335078 417.5625 
L 194.335078 422.806875 
Q 194.335078 424.665 193.403203 425.574375 
Q 192.473203 426.481875 190.562578 426.481875 
Q 188.657578 426.481875 187.725703 425.574375 
Q 186.795703 424.665 186.795703 422.806875 
L 186.795703 417.5625 
z
M 199.744219 421.441875 
Q 200.452969 421.441875 200.760469 421.179375 
Q 201.067969 420.915 201.067969 420.31125 
Q 201.067969 419.713125 200.760469 419.45625 
Q 200.452969 419.1975 199.744219 419.1975 
L 198.795469 419.1975 
L 198.795469 421.441875 
L 199.744219 421.441875 
z
M 198.795469 423 
L 198.795469 426.31125 
L 196.539844 426.31125 
L 196.539844 417.5625 
L 199.984219 417.5625 
Q 201.712969 417.5625 202.517344 418.14375 
Q 203.323594 418.723125 203.323594 419.9775 
Q 203.323594 420.84375 202.903594 421.400625 
Q 202.485469 421.9575 201.641719 422.221875 
Q 202.104844 422.326875 202.470469 422.7 
Q 202.837969 423.07125 203.212969 423.826875 
L 204.437344 426.31125 
L 202.035469 426.31125 
L 200.968594 424.138125 
Q 200.646094 423.481875 200.314219 423.241875 
Q 199.984219 423 199.432969 423 
L 198.795469 423 
z
M 209.775703 419.04 
Q 208.744453 419.04 208.176328 419.80125 
Q 207.608203 420.5625 207.608203 421.94625 
Q 207.608203 423.3225 208.176328 424.085625 
Q 208.744453 424.846875 209.775703 424.846875 
Q 210.812578 424.846875 211.380703 424.085625 
Q 211.948828 423.3225 211.948828 421.94625 
Q 211.948828 420.5625 211.380703 419.80125 
Q 210.812578 419.04 209.775703 419.04 
z
M 209.775703 417.405 
Q 211.885078 417.405 213.079453 418.6125 
Q 214.275703 419.818125 214.275703 421.94625 
Q 214.275703 424.066875 213.079453 425.274375 
Q 211.885078 426.481875 209.775703 426.481875 
Q 207.671953 426.481875 206.473828 425.274375 
Q 205.275703 424.066875 205.275703 421.94625 
Q 205.275703 419.818125 206.473828 418.6125 
Q 207.671953 417.405 209.775703 417.405 
z
M 215.98125 417.5625 
L 219.72375 417.5625 
Q 221.394375 417.5625 222.286875 418.305 
Q 223.18125 419.045625 223.18125 420.41625 
Q 223.18125 421.794375 222.286875 422.535 
Q 221.394375 423.275625 219.72375 423.275625 
L 218.236875 423.275625 
L 218.236875 426.31125 
L 215.98125 426.31125 
L 215.98125 417.5625 
z
M 218.236875 419.1975 
L 218.236875 421.640625 
L 219.48375 421.640625 
Q 220.14 421.640625 220.498125 421.321875 
Q 220.85625 421.003125 220.85625 420.41625 
Q 220.85625 419.83125 220.498125 419.514375 
Q 220.14 419.1975 219.48375 419.1975 
L 218.236875 419.1975 
z
M 224.776172 417.5625 
L 230.862422 417.5625 
L 230.862422 419.26875 
L 227.031797 419.26875 
L 227.031797 420.89625 
L 230.635547 420.89625 
L 230.635547 422.6025 
L 227.031797 422.6025 
L 227.031797 424.606875 
L 230.991797 424.606875 
L 230.991797 426.31125 
L 224.776172 426.31125 
L 224.776172 417.5625 
z
M 238.281562 424.7175 
L 234.754687 424.7175 
L 234.197812 426.31125 
L 231.929062 426.31125 
L 235.169062 417.5625 
L 237.859687 417.5625 
L 241.099687 426.31125 
L 238.832812 426.31125 
L 238.281562 424.7175 
z
M 235.317187 423.09375 
L 237.713437 423.09375 
L 236.517187 419.61375 
L 235.317187 423.09375 
z
M 242.260547 417.5625 
L 244.778672 417.5625 
L 247.960547 423.5625 
L 247.960547 417.5625 
L 250.099922 417.5625 
L 250.099922 426.31125 
L 247.579922 426.31125 
L 244.398047 420.31125 
L 244.398047 426.31125 
L 242.260547 426.31125 
L 242.260547 417.5625 
z
M 255.436875 417.5625 
L 263.499375 417.5625 
L 263.499375 419.26875 
L 260.59875 419.26875 
L 260.59875 426.31125 
L 258.343125 426.31125 
L 258.343125 419.26875 
L 255.436875 419.26875 
L 255.436875 417.5625 
z
M 267.871172 421.441875 
Q 268.579922 421.441875 268.887422 421.179375 
Q 269.194922 420.915 269.194922 420.31125 
Q 269.194922 419.713125 268.887422 419.45625 
Q 268.579922 419.1975 267.871172 419.1975 
L 266.922422 419.1975 
L 266.922422 421.441875 
L 267.871172 421.441875 
z
M 266.922422 423 
L 266.922422 426.31125 
L 264.666797 426.31125 
L 264.666797 417.5625 
L 268.111172 417.5625 
Q 269.839922 417.5625 270.644297 418.14375 
Q 271.450547 418.723125 271.450547 419.9775 
Q 271.450547 420.84375 271.030547 421.400625 
Q 270.612422 421.9575 269.768672 422.221875 
Q 270.231797 422.326875 270.597422 422.7 
Q 270.964922 423.07125 271.339922 423.826875 
L 272.564297 426.31125 
L 270.162422 426.31125 
L 269.095547 424.138125 
Q 268.773047 423.481875 268.441172 423.241875 
Q 268.111172 423 267.559922 423 
L 266.922422 423 
z
M 279.215156 424.7175 
L 275.688281 424.7175 
L 275.131406 426.31125 
L 272.862656 426.31125 
L 276.102656 417.5625 
L 278.793281 417.5625 
L 282.033281 426.31125 
L 279.766406 426.31125 
L 279.215156 424.7175 
z
M 276.250781 423.09375 
L 278.647031 423.09375 
L 277.450781 419.61375 
L 276.250781 423.09375 
z
M 283.194141 417.5625 
L 285.449766 417.5625 
L 285.449766 426.31125 
L 283.194141 426.31125 
L 283.194141 417.5625 
z
M 287.658984 417.5625 
L 290.177109 417.5625 
L 293.358984 423.5625 
L 293.358984 417.5625 
L 295.498359 417.5625 
L 295.498359 426.31125 
L 292.978359 426.31125 
L 289.796484 420.31125 
L 289.796484 426.31125 
L 287.658984 426.31125 
L 287.658984 417.5625 
z
M 297.701953 417.5625 
L 299.957578 417.5625 
L 299.957578 426.31125 
L 297.701953 426.31125 
L 297.701953 417.5625 
z
M 302.166797 417.5625 
L 304.684922 417.5625 
L 307.866797 423.5625 
L 307.866797 417.5625 
L 310.006172 417.5625 
L 310.006172 426.31125 
L 307.486172 426.31125 
L 304.304297 420.31125 
L 304.304297 426.31125 
L 302.166797 426.31125 
L 302.166797 417.5625 
z
M 320.071641 425.660625 
Q 319.227891 426.07125 318.320391 426.2775 
Q 317.412891 426.481875 316.445391 426.481875 
Q 314.259141 426.481875 312.982266 425.259375 
Q 311.705391 424.036875 311.705391 421.94625 
Q 311.705391 419.83125 313.004766 418.618125 
Q 314.306016 417.405 316.569141 417.405 
Q 317.441016 417.405 318.239766 417.57 
Q 319.040391 417.733125 319.749141 418.055625 
L 319.749141 419.865 
Q 319.017891 419.450625 318.294141 419.24625 
Q 317.570391 419.04 316.842891 419.04 
Q 315.496641 419.04 314.767266 419.79375 
Q 314.037891 420.545625 314.037891 421.94625 
Q 314.037891 423.33375 314.741016 424.09125 
Q 315.444141 424.846875 316.737891 424.846875 
Q 317.090391 424.846875 317.392266 424.80375 
Q 317.694141 424.75875 317.934141 424.665 
L 317.934141 422.96625 
L 316.556016 422.96625 
L 316.556016 421.453125 
L 320.071641 421.453125 
L 320.071641 425.660625 
z
M 331.545234 424.7175 
L 328.018359 424.7175 
L 327.461484 426.31125 
L 325.192734 426.31125 
L 328.432734 417.5625 
L 331.123359 417.5625 
L 334.363359 426.31125 
L 332.096484 426.31125 
L 331.545234 424.7175 
z
M 328.580859 423.09375 
L 330.977109 423.09375 
L 329.780859 419.61375 
L 328.580859 423.09375 
z
M 342.461719 425.83125 
Q 341.839219 426.15375 341.166094 426.316875 
Q 340.492969 426.481875 339.759844 426.481875 
Q 337.573594 426.481875 336.296719 425.259375 
Q 335.019844 424.036875 335.019844 421.94625 
Q 335.019844 419.848125 336.296719 418.6275 
Q 337.573594 417.405 339.759844 417.405 
Q 340.492969 417.405 341.166094 417.57 
Q 341.839219 417.733125 342.461719 418.055625 
L 342.461719 419.865 
Q 341.833594 419.4375 341.224219 419.23875 
Q 340.614844 419.04 339.941719 419.04 
Q 338.734219 419.04 338.042344 419.814375 
Q 337.352344 420.586875 337.352344 421.94625 
Q 337.352344 423.3 338.042344 424.074375 
Q 338.734219 424.846875 339.941719 424.846875 
Q 340.614844 424.846875 341.224219 424.648125 
Q 341.833594 424.4475 342.461719 424.02 
L 342.461719 425.83125 
z
M 349.638984 424.7175 
L 346.112109 424.7175 
L 345.555234 426.31125 
L 343.286484 426.31125 
L 346.526484 417.5625 
L 349.217109 417.5625 
L 352.457109 426.31125 
L 350.190234 426.31125 
L 349.638984 424.7175 
z
M 346.674609 423.09375 
L 349.070859 423.09375 
L 347.874609 419.61375 
L 346.674609 423.09375 
z
M 355.873594 419.26875 
L 355.873594 424.606875 
L 356.681719 424.606875 
Q 358.063594 424.606875 358.792969 423.920625 
Q 359.524219 423.234375 359.524219 421.9275 
Q 359.524219 420.628125 358.796719 419.949375 
Q 358.071094 419.26875 356.681719 419.26875 
L 355.873594 419.26875 
z
M 353.617969 417.5625 
L 355.995469 417.5625 
Q 357.988594 417.5625 358.963594 417.8475 
Q 359.938594 418.130625 360.636094 418.81125 
Q 361.251094 419.40375 361.549219 420.178125 
Q 361.849219 420.950625 361.849219 421.9275 
Q 361.849219 422.919375 361.549219 423.695625 
Q 361.251094 424.471875 360.636094 425.0625 
Q 359.932969 425.743125 358.948594 426.028125 
Q 357.964219 426.31125 355.995469 426.31125 
L 353.617969 426.31125 
L 353.617969 417.5625 
z
M 363.578906 417.5625 
L 369.665156 417.5625 
L 369.665156 419.26875 
L 365.834531 419.26875 
L 365.834531 420.89625 
L 369.438281 420.89625 
L 369.438281 422.6025 
L 365.834531 422.6025 
L 365.834531 424.606875 
L 369.794531 424.606875 
L 369.794531 426.31125 
L 363.578906 426.31125 
L 363.578906 417.5625 
z
M 371.776172 417.5625 
L 374.646797 417.5625 
L 376.638047 422.244375 
L 378.642422 417.5625 
L 381.507422 417.5625 
L 381.507422 426.31125 
L 379.375547 426.31125 
L 379.375547 419.911875 
L 377.359922 424.629375 
L 375.929297 424.629375 
L 373.913672 419.911875 
L 373.913672 426.31125 
L 371.776172 426.31125 
L 371.776172 417.5625 
z
M 382.496953 417.5625 
L 384.964453 417.5625 
L 386.957578 420.680625 
L 388.948828 417.5625 
L 391.421953 417.5625 
L 388.088203 422.625 
L 388.088203 426.31125 
L 385.832578 426.31125 
L 385.832578 422.625 
L 382.496953 417.5625 
z
" style="fill: #ffffff; stroke: #f4a261"/>
    <path d="M 178.598437 417.5625 
L 184.684687 417.5625 
L 184.684687 419.26875 
L 180.854062 419.26875 
L 180.854062 420.89625 
L 184.457812 420.89625 
L 184.457812 422.6025 
L 180.854062 422.6025 
L 180.854062 424.606875 
L 184.814062 424.606875 
L 184.814062 426.31125 
L 178.598437 426.31125 
L 178.598437 417.5625 
z
M 186.795703 417.5625 
L 189.051328 417.5625 
L 189.051328 422.806875 
Q 189.051328 423.890625 189.405703 424.3575 
Q 189.760078 424.8225 190.562578 424.8225 
Q 191.370703 424.8225 191.725078 424.3575 
Q 192.079453 423.890625 192.079453 422.806875 
L 192.079453 417.5625 
L 194.335078 417.5625 
L 194.335078 422.806875 
Q 194.335078 424.665 193.403203 425.574375 
Q 192.473203 426.481875 190.562578 426.481875 
Q 188.657578 426.481875 187.725703 425.574375 
Q 186.795703 424.665 186.795703 422.806875 
L 186.795703 417.5625 
z
M 199.744219 421.441875 
Q 200.452969 421.441875 200.760469 421.179375 
Q 201.067969 420.915 201.067969 420.31125 
Q 201.067969 419.713125 200.760469 419.45625 
Q 200.452969 419.1975 199.744219 419.1975 
L 198.795469 419.1975 
L 198.795469 421.441875 
L 199.744219 421.441875 
z
M 198.795469 423 
L 198.795469 426.31125 
L 196.539844 426.31125 
L 196.539844 417.5625 
L 199.984219 417.5625 
Q 201.712969 417.5625 202.517344 418.14375 
Q 203.323594 418.723125 203.323594 419.9775 
Q 203.323594 420.84375 202.903594 421.400625 
Q 202.485469 421.9575 201.641719 422.221875 
Q 202.104844 422.326875 202.470469 422.7 
Q 202.837969 423.07125 203.212969 423.826875 
L 204.437344 426.31125 
L 202.035469 426.31125 
L 200.968594 424.138125 
Q 200.646094 423.481875 200.314219 423.241875 
Q 199.984219 423 199.432969 423 
L 198.795469 423 
z
M 209.775703 419.04 
Q 208.744453 419.04 208.176328 419.80125 
Q 207.608203 420.5625 207.608203 421.94625 
Q 207.608203 423.3225 208.176328 424.085625 
Q 208.744453 424.846875 209.775703 424.846875 
Q 210.812578 424.846875 211.380703 424.085625 
Q 211.948828 423.3225 211.948828 421.94625 
Q 211.948828 420.5625 211.380703 419.80125 
Q 210.812578 419.04 209.775703 419.04 
z
M 209.775703 417.405 
Q 211.885078 417.405 213.079453 418.6125 
Q 214.275703 419.818125 214.275703 421.94625 
Q 214.275703 424.066875 213.079453 425.274375 
Q 211.885078 426.481875 209.775703 426.481875 
Q 207.671953 426.481875 206.473828 425.274375 
Q 205.275703 424.066875 205.275703 421.94625 
Q 205.275703 419.818125 206.473828 418.6125 
Q 207.671953 417.405 209.775703 417.405 
z
M 215.98125 417.5625 
L 219.72375 417.5625 
Q 221.394375 417.5625 222.286875 418.305 
Q 223.18125 419.045625 223.18125 420.41625 
Q 223.18125 421.794375 222.286875 422.535 
Q 221.394375 423.275625 219.72375 423.275625 
L 218.236875 423.275625 
L 218.236875 426.31125 
L 215.98125 426.31125 
L 215.98125 417.5625 
z
M 218.236875 419.1975 
L 218.236875 421.640625 
L 219.48375 421.640625 
Q 220.14 421.640625 220.498125 421.321875 
Q 220.85625 421.003125 220.85625 420.41625 
Q 220.85625 419.83125 220.498125 419.514375 
Q 220.14 419.1975 219.48375 419.1975 
L 218.236875 419.1975 
z
M 224.776172 417.5625 
L 230.862422 417.5625 
L 230.862422 419.26875 
L 227.031797 419.26875 
L 227.031797 420.89625 
L 230.635547 420.89625 
L 230.635547 422.6025 
L 227.031797 422.6025 
L 227.031797 424.606875 
L 230.991797 424.606875 
L 230.991797 426.31125 
L 224.776172 426.31125 
L 224.776172 417.5625 
z
M 238.281562 424.7175 
L 234.754687 424.7175 
L 234.197812 426.31125 
L 231.929062 426.31125 
L 235.169062 417.5625 
L 237.859687 417.5625 
L 241.099687 426.31125 
L 238.832812 426.31125 
L 238.281562 424.7175 
z
M 235.317187 423.09375 
L 237.713437 423.09375 
L 236.517187 419.61375 
L 235.317187 423.09375 
z
M 242.260547 417.5625 
L 244.778672 417.5625 
L 247.960547 423.5625 
L 247.960547 417.5625 
L 250.099922 417.5625 
L 250.099922 426.31125 
L 247.579922 426.31125 
L 244.398047 420.31125 
L 244.398047 426.31125 
L 242.260547 426.31125 
L 242.260547 417.5625 
z
M 255.436875 417.5625 
L 263.499375 417.5625 
L 263.499375 419.26875 
L 260.59875 419.26875 
L 260.59875 426.31125 
L 258.343125 426.31125 
L 258.343125 419.26875 
L 255.436875 419.26875 
L 255.436875 417.5625 
z
M 267.871172 421.441875 
Q 268.579922 421.441875 268.887422 421.179375 
Q 269.194922 420.915 269.194922 420.31125 
Q 269.194922 419.713125 268.887422 419.45625 
Q 268.579922 419.1975 267.871172 419.1975 
L 266.922422 419.1975 
L 266.922422 421.441875 
L 267.871172 421.441875 
z
M 266.922422 423 
L 266.922422 426.31125 
L 264.666797 426.31125 
L 264.666797 417.5625 
L 268.111172 417.5625 
Q 269.839922 417.5625 270.644297 418.14375 
Q 271.450547 418.723125 271.450547 419.9775 
Q 271.450547 420.84375 271.030547 421.400625 
Q 270.612422 421.9575 269.768672 422.221875 
Q 270.231797 422.326875 270.597422 422.7 
Q 270.964922 423.07125 271.339922 423.826875 
L 272.564297 426.31125 
L 270.162422 426.31125 
L 269.095547 424.138125 
Q 268.773047 423.481875 268.441172 423.241875 
Q 268.111172 423 267.559922 423 
L 266.922422 423 
z
M 279.215156 424.7175 
L 275.688281 424.7175 
L 275.131406 426.31125 
L 272.862656 426.31125 
L 276.102656 417.5625 
L 278.793281 417.5625 
L 282.033281 426.31125 
L 279.766406 426.31125 
L 279.215156 424.7175 
z
M 276.250781 423.09375 
L 278.647031 423.09375 
L 277.450781 419.61375 
L 276.250781 423.09375 
z
M 283.194141 417.5625 
L 285.449766 417.5625 
L 285.449766 426.31125 
L 283.194141 426.31125 
L 283.194141 417.5625 
z
M 287.658984 417.5625 
L 290.177109 417.5625 
L 293.358984 423.5625 
L 293.358984 417.5625 
L 295.498359 417.5625 
L 295.498359 426.31125 
L 292.978359 426.31125 
L 289.796484 420.31125 
L 289.796484 426.31125 
L 287.658984 426.31125 
L 287.658984 417.5625 
z
M 297.701953 417.5625 
L 299.957578 417.5625 
L 299.957578 426.31125 
L 297.701953 426.31125 
L 297.701953 417.5625 
z
M 302.166797 417.5625 
L 304.684922 417.5625 
L 307.866797 423.5625 
L 307.866797 417.5625 
L 310.006172 417.5625 
L 310.006172 426.31125 
L 307.486172 426.31125 
L 304.304297 420.31125 
L 304.304297 426.31125 
L 302.166797 426.31125 
L 302.166797 417.5625 
z
M 320.071641 425.660625 
Q 319.227891 426.07125 318.320391 426.2775 
Q 317.412891 426.481875 316.445391 426.481875 
Q 314.259141 426.481875 312.982266 425.259375 
Q 311.705391 424.036875 311.705391 421.94625 
Q 311.705391 419.83125 313.004766 418.618125 
Q 314.306016 417.405 316.569141 417.405 
Q 317.441016 417.405 318.239766 417.57 
Q 319.040391 417.733125 319.749141 418.055625 
L 319.749141 419.865 
Q 319.017891 419.450625 318.294141 419.24625 
Q 317.570391 419.04 316.842891 419.04 
Q 315.496641 419.04 314.767266 419.79375 
Q 314.037891 420.545625 314.037891 421.94625 
Q 314.037891 423.33375 314.741016 424.09125 
Q 315.444141 424.846875 316.737891 424.846875 
Q 317.090391 424.846875 317.392266 424.80375 
Q 317.694141 424.75875 317.934141 424.665 
L 317.934141 422.96625 
L 316.556016 422.96625 
L 316.556016 421.453125 
L 320.071641 421.453125 
L 320.071641 425.660625 
z
M 331.545234 424.7175 
L 328.018359 424.7175 
L 327.461484 426.31125 
L 325.192734 426.31125 
L 328.432734 417.5625 
L 331.123359 417.5625 
L 334.363359 426.31125 
L 332.096484 426.31125 
L 331.545234 424.7175 
z
M 328.580859 423.09375 
L 330.977109 423.09375 
L 329.780859 419.61375 
L 328.580859 423.09375 
z
M 342.461719 425.83125 
Q 341.839219 426.15375 341.166094 426.316875 
Q 340.492969 426.481875 339.759844 426.481875 
Q 337.573594 426.481875 336.296719 425.259375 
Q 335.019844 424.036875 335.019844 421.94625 
Q 335.019844 419.848125 336.296719 418.6275 
Q 337.573594 417.405 339.759844 417.405 
Q 340.492969 417.405 341.166094 417.57 
Q 341.839219 417.733125 342.461719 418.055625 
L 342.461719 419.865 
Q 341.833594 419.4375 341.224219 419.23875 
Q 340.614844 419.04 339.941719 419.04 
Q 338.734219 419.04 338.042344 419.814375 
Q 337.352344 420.586875 337.352344 421.94625 
Q 337.352344 423.3 338.042344 424.074375 
Q 338.734219 424.846875 339.941719 424.846875 
Q 340.614844 424.846875 341.224219 424.648125 
Q 341.833594 424.4475 342.461719 424.02 
L 342.461719 425.83125 
z
M 349.638984 424.7175 
L 346.112109 424.7175 
L 345.555234 426.31125 
L 343.286484 426.31125 
L 346.526484 417.5625 
L 349.217109 417.5625 
L 352.457109 426.31125 
L 350.190234 426.31125 
L 349.638984 424.7175 
z
M 346.674609 423.09375 
L 349.070859 423.09375 
L 347.874609 419.61375 
L 346.674609 423.09375 
z
M 355.873594 419.26875 
L 355.873594 424.606875 
L 356.681719 424.606875 
Q 358.063594 424.606875 358.792969 423.920625 
Q 359.524219 423.234375 359.524219 421.9275 
Q 359.524219 420.628125 358.796719 419.949375 
Q 358.071094 419.26875 356.681719 419.26875 
L 355.873594 419.26875 
z
M 353.617969 417.5625 
L 355.995469 417.5625 
Q 357.988594 417.5625 358.963594 417.8475 
Q 359.938594 418.130625 360.636094 418.81125 
Q 361.251094 419.40375 361.549219 420.178125 
Q 361.849219 420.950625 361.849219 421.9275 
Q 361.849219 422.919375 361.549219 423.695625 
Q 361.251094 424.471875 360.636094 425.0625 
Q 359.932969 425.743125 358.948594 426.028125 
Q 357.964219 426.31125 355.995469 426.31125 
L 353.617969 426.31125 
L 353.617969 417.5625 
z
M 363.578906 417.5625 
L 369.665156 417.5625 
L 369.665156 419.26875 
L 365.834531 419.26875 
L 365.834531 420.89625 
L 369.438281 420.89625 
L 369.438281 422.6025 
L 365.834531 422.6025 
L 365.834531 424.606875 
L 369.794531 424.606875 
L 369.794531 426.31125 
L 363.578906 426.31125 
L 363.578906 417.5625 
z
M 371.776172 417.5625 
L 374.646797 417.5625 
L 376.638047 422.244375 
L 378.642422 417.5625 
L 381.507422 417.5625 
L 381.507422 426.31125 
L 379.375547 426.31125 
L 379.375547 419.911875 
L 377.359922 424.629375 
L 375.929297 424.629375 
L 373.913672 419.911875 
L 373.913672 426.31125 
L 371.776172 426.31125 
L 371.776172 417.5625 
z
M 382.496953 417.5625 
L 384.964453 417.5625 
L 386.957578 420.680625 
L 388.948828 417.5625 
L 391.421953 417.5625 
L 388.088203 422.625 
L 388.088203 426.31125 
L 385.832578 426.31125 
L 385.832578 422.625 
L 382.496953 417.5625 
z
" style="fill: #ffffff"/>
   </g>
  </g>
 </g>
 <defs>
  <clipPath id="pdf34adeb3f">
   <rect x="7.2" y="7.2" width="554.4" height="554.4"/>
  </clipPath>
 </defs>
</svg>
